Coordinates
version=1
nRows=16
nColumns=28
inDegrees=yes

Units are S.I. units (second, meters, Newtons, ...)
If the header above contains a line with 'inDegrees', this indicates whether rotational values are in degrees (yes) or radians (no).

endheader
time	bJoint_3	bJoint_4	seatpos	slocangle	soarinout	plocangle	poarinout	hipangle	kneeangle	footangle	lbackangle	uarmleft_out	uarmleft_trn	uarmleft_up	se_inout	se_updown	handleleft_out	handleleft_trn	handleleft_up	uarmright_out	uarmright_trn	uarmright_up	pe_inout	pe_updown	handleright_out	handleright_trn	handleright_up
      5.02000000	      0.00000003	     -0.00000009	     -0.00385079	    -18.13500882	     17.80393467	    -19.13709262	     17.23948452	     92.82083195	      6.22368035	      9.04451230	    -26.50886484	    117.90150584	    -45.23917271	    108.40511375	      2.46798004	     62.96643096	     61.50297269	    -62.53413485	     27.98765906	    -70.15270950	   -140.82823518	    -78.61687780	    -25.48232120	     64.22809284	     88.31474794	    -81.86198756	    122.60862659
      5.04000000	      0.00000003	     -0.00000009	     -0.00373581	    -18.42876088	     17.80258658	    -19.41723795	     17.23383267	     92.96419926	      5.95682642	      8.92102568	    -26.70441778	    117.51658608	    -45.36445957	    107.60566157	      2.71122429	     63.83491563	     61.71693813	    -62.58283536	     28.01149038	    -69.97955337	   -140.94844539	    -79.01003303	    -25.47369570	     65.08740445	     87.97555082	    -81.99369861	    122.39163955
      5.06000000	      0.00000003	     -0.00000009	     -0.00373648	    -18.72203062	     17.80634647	    -19.69518641	     17.24066070	     92.96334722	      5.95841218	      8.92175939	    -26.98604594	    116.58413970	    -45.58503755	    106.49103228	      1.99988201	     64.48289334	     62.92470644	    -63.62899807	     29.05992577	    -69.94149266	   -140.87748506	    -79.44615548	    -25.16856920	     65.77123320	     87.15529337	    -82.03251081	    121.63948484
      5.08000000	      0.00000003	     -0.00000009	     -0.00364162	    -18.99585389	     17.81223252	    -19.99087910	     17.24002395	     93.08664032	      5.72896885	      8.81560918	    -27.17464043	    116.53589058	    -45.61932722	    105.96923746	      2.62380883	     65.27440106	     62.56794361	    -63.28449698	     28.59691991	    -69.86129605	   -140.90137191	    -79.96208461	    -25.17006691	     66.74421583	     85.78027743	    -82.17158191	    120.47139219
      5.10000000	      0.00000003	     -0.00000009	     -0.00362124	    -19.28460662	     17.80813325	    -20.29319603	     17.24275959	     93.11377592	      5.67847639	      8.79225231	    -27.46958120	    117.07793642	    -45.43783779	    105.93748657	      3.97794422	     65.77844093	     61.06801701	    -62.24471647	     27.28274021	    -69.62506157	   -140.84846827	    -80.31656817	    -24.47843285	     67.56089037	     87.34473715	    -81.99330358	    122.08663824
      5.12000000	      0.00000003	     -0.00000009	     -0.00359118	    -19.58766428	     17.81321399	    -20.58292057	     17.24039168	     93.15425645	      5.60315623	      8.75741268	    -27.69889309	    116.93840650	    -45.52058554	    105.31458224	      4.68522917	     66.59212677	     60.78952556	    -61.88796550	     26.91558136	    -69.34319175	   -141.06319054	    -80.62608427	    -24.52771957	     68.35906046	     87.60035004	    -82.19386506	    122.36706748
      5.14000000	      0.00000004	     -0.00000008	     -0.00350462	    -19.87706096	     17.81177246	    -20.86079789	     17.24565785	     93.27400473	      5.38037350	      8.65437823	    -27.95484912	    117.81749935	    -45.37283080	    105.48955025	      7.00213054	     67.13994557	     58.80327419	    -59.94689554	     25.15061905	    -69.14401001	   -141.01589162	    -80.96787990	    -23.96522785	     69.10934368	     88.77492557	    -82.06856417	    123.58829519
      5.16000000	      0.00000004	     -0.00000008	     -0.00350486	    -20.15547761	     17.81969647	    -21.13889483	     17.24125034	     93.27365505	      5.38102400	      8.65467904	    -28.16561068	    117.75676794	    -45.42961867	    104.96214840	      7.82491712	     67.87623400	     58.39270537	    -59.44404500	     24.68626992	    -69.02476690	   -141.01338231	    -81.40031203	    -23.69853734	     69.95000580	     88.77819396	    -82.06350315	    123.71525856
      5.18000000	      0.00000004	     -0.00000008	     -0.00348485	    -20.43884804	     17.81283545	    -21.43384007	     17.24478958	     93.30205398	      5.32819582	      8.63024980	    -28.39107288	    118.24829049	    -45.33786229	    104.84105617	      9.64247493	     68.48561053	     57.07925776	    -57.92643516	     23.49263114	    -68.80995717	   -141.09399200	    -81.79019018	    -23.55967761	     70.81598312	     88.90023292	    -82.16511577	    123.92040289
      5.20000000	      0.00000004	     -0.00000008	     -0.00341214	    -20.74802919	     17.82078712	    -21.71173666	     17.24893508	     93.40768499	      5.13171921	      8.53940420	    -28.63949807	    117.91867545	    -45.48609162	    104.09586682	     10.24197714	     69.23868354	     56.98861268	    -57.72332254	     23.35064514	    -68.65627317	   -141.04091440	    -82.16479687	    -23.05013858	     71.55348189	     89.81177386	    -82.06383587	    124.87556897
      5.22000000	      0.00000004	     -0.00000008	     -0.00340170	    -21.03112532	     17.81308067	    -22.00844218	     17.24566838	     93.42319817	      5.10286692	      8.52606509	    -28.85856240	    117.46811814	    -45.56050886	    103.29824400	     10.41388450	     69.96317663	     57.05319772	    -57.81164566	     23.33214044	    -68.54888641	   -141.02406663	    -82.63993811	    -22.77318616	     72.43788251	     89.76193158	    -82.06421440	    124.94748842
      5.24000000	      0.00000004	     -0.00000008	     -0.00340216	    -21.31691041	     17.82429770	    -22.31028883	     17.24549435	     93.42250181	      5.10416203	      8.52666384	    -29.12998389	    116.45299323	    -45.81227687	    102.12961045	      9.53454765	     70.64792602	     58.11050050	    -59.06686527	     24.23532937	    -68.42967916	   -140.95697449	    -83.08050778	    -22.21704684	     73.22766692	     90.65906996	    -81.94150104	    125.89161284
      5.26000000	      0.00000004	     -0.00000008	     -0.00331117	    -21.61082509	     17.81881632	    -22.60969686	     17.24767283	     93.56150187	      4.84567205	      8.40717392	    -29.33207960	    115.86089533	    -45.94067591	    101.19758256	      9.60054572	     71.45395976	     58.40379329	    -59.27641526	     24.40066162	    -68.13373989	   -141.15307722	    -83.42753131	    -22.34135588	     74.09529260	     90.71146330	    -82.19405020	    125.98361089
      5.28000000	      0.00000004	     -0.00000008	     -0.00330356	    -21.90985864	     17.82220673	    -22.88814915	     17.25037978	     93.57346395	      4.82342947	      8.39689341	    -29.61093519	    114.32254177	    -46.17388030	     99.62463876	      7.40989282	     72.20763603	     60.66310794	    -61.70473658	     26.37506957	    -67.94238348	   -141.06785262	    -83.76035794	    -21.45262095	     74.76943771	     93.39225835	    -81.87364049	    128.63924687
      5.30000000	      0.00000005	     -0.00000008	     -0.00329920	    -22.21298225	     17.82343081	    -23.18464091	     17.24549391	     93.58034520	      4.81063448	      8.39097968	    -29.82185721	    113.98982715	    -46.24470084	     98.84981209	      7.94752678	     73.03881538	     60.48978436	    -61.46305846	     26.12252859	    -67.92551086	   -141.03803093	    -84.29538020	    -21.35213090	     75.61948110	     92.38621802	    -81.98077051	    127.74926128
      5.32000000	      0.00000005	     -0.00000008	     -0.00328299	    -22.48682793	     17.82960649	    -23.48054295	     17.24611307	     93.60608581	      4.76277361	      8.36885942	    -30.04378173	    114.12724032	    -46.22337044	     98.49012428	      9.20209420	     73.66662617	     59.43944841	    -60.53000995	     25.15868723	    -67.77943989	   -141.08145320	    -84.73247372	    -21.23611105	     76.43797999	     92.25269885	    -82.09868962	    127.66944777
